<svg width="343" height="380" viewBox="0 0 343 380" fill="none" xmlns="http://www.w3.org/2000/svg">
<path fill-rule="evenodd" clip-rule="evenodd" d="M179.661 52.3995C181.132 52.3995 182.59 52.2667 184.034 52.0012C185.478 51.7357 186.883 51.3495 188.249 50.8306C189.602 50.3117 190.902 49.6721 192.123 48.9238C193.344 48.1756 194.486 47.3188 195.524 46.3654C196.561 45.412 197.494 44.3621 198.321 43.2398C199.135 42.1175 199.831 40.9348 200.396 39.6797C200.96 38.4246 201.38 37.1454 201.669 35.8179C201.958 34.4904 202.103 33.1509 202.103 31.7872C202.103 30.4356 201.958 29.096 201.669 27.7685C201.393 26.441 200.96 25.1497 200.396 23.9067C199.844 22.6516 199.148 21.469 198.334 20.3346C197.52 19.2122 196.587 18.1744 195.55 17.2089C194.5 16.2556 193.37 15.3987 192.149 14.6505C190.928 13.8902 189.628 13.2627 188.275 12.7438C186.91 12.2248 185.505 11.8266 184.06 11.5611C182.616 11.2956 181.158 11.1628 179.688 11.1628C178.217 11.1628 176.759 11.2835 175.315 11.549C173.87 11.8145 172.465 12.2007 171.1 12.7196C169.734 13.2386 168.447 13.8661 167.226 14.6143C165.992 15.3625 164.862 16.2194 163.812 17.1727C162.775 18.1261 161.842 19.176 161.028 20.2984C160.201 21.4207 159.505 22.6034 158.94 23.8585C158.376 25.1015 157.942 26.3928 157.653 27.7202C157.364 29.0477 157.22 30.3873 157.22 31.7389C157.22 33.0905 157.364 34.4422 157.653 35.7696C157.942 37.0971 158.362 38.3884 158.927 39.6314C159.492 40.8865 160.175 42.0813 161.002 43.2036C161.816 44.3259 162.748 45.3758 163.786 46.3292C164.836 47.2947 165.965 48.1515 167.187 48.8997C168.408 49.66 169.708 50.2996 171.073 50.8185C172.426 51.3375 173.831 51.7236 175.275 51.9891C176.72 52.2667 178.191 52.3995 179.661 52.3995Z" fill="#F9ED32" fill-opacity="0.7765"/>
<path fill-rule="evenodd" clip-rule="evenodd" d="M288.375 68.2938C294.468 74.7985 299.51 81.9187 303.489 89.6784C307.481 97.4382 310.265 105.536 311.854 113.996C316.397 138.433 309.464 161.061 314.322 176.267C315.465 179.682 316.988 182.941 318.905 186.042C316.62 187.261 314.283 188.359 311.867 189.325C309.464 190.29 306.995 191.135 304.474 191.847C301.953 192.559 299.405 193.126 296.818 193.572C294.232 194.007 291.618 194.309 288.992 194.478C286.366 194.647 283.74 194.671 281.1 194.562C278.474 194.453 275.861 194.2 273.261 193.814C270.661 193.428 268.1 192.897 265.566 192.245C263.032 191.581 260.537 190.797 258.108 189.88C255.678 188.95 253.301 187.913 251.004 186.742C248.692 185.571 246.473 184.28 244.32 182.88C242.179 181.468 240.131 179.96 238.174 178.331C236.218 176.713 234.379 175 232.633 173.177C230.9 171.367 229.271 169.46 227.774 167.481C226.277 165.49 224.899 163.426 223.651 161.302C222.404 159.166 221.301 156.97 220.329 154.725C219.357 152.481 218.53 150.188 217.847 147.847C217.164 145.517 216.626 143.152 216.232 140.763C215.838 138.361 215.602 135.959 215.51 133.546C215.431 131.12 215.484 128.707 215.707 126.293C215.917 123.891 216.271 121.49 216.783 119.125C217.296 116.747 217.965 114.406 218.766 112.101C219.567 109.796 220.513 107.551 221.603 105.343C222.679 103.134 223.901 100.998 225.253 98.9226C226.606 96.8469 228.089 94.8556 229.692 92.9368C231.294 91.0059 233.014 89.1836 234.839 87.4458C236.677 85.708 238.608 84.0668 240.643 82.5341C242.678 81.0015 244.806 79.5774 247.012 78.262C249.231 76.9587 251.516 75.7639 253.879 74.7019C256.243 73.6279 258.659 72.6866 261.141 71.878C263.623 71.0574 266.144 70.3816 268.704 69.8264C271.278 69.2834 273.865 68.8731 276.478 68.5955C279.091 68.33 281.717 68.1852 284.357 68.1852C285.644 68.1852 287.022 68.2335 288.375 68.2938Z" fill="#662D91" fill-opacity="0.7765"/>
<path fill-rule="evenodd" clip-rule="evenodd" d="M313.193 124.747C314.624 144.985 310.173 163.317 314.322 176.326C321.426 198.531 352.876 218.649 338.182 230.077C333.52 233.493 325.523 233.722 320.835 237.077C313.364 242.435 318.472 248.228 319.128 252.415C319.443 254.395 317.487 257.58 311.026 261.454C315.911 264.761 315.465 267.561 313.718 270.143C311.341 271.64 308.899 273.04 306.378 274.331C303.857 275.634 301.283 276.817 298.657 277.903C296.017 278.977 293.339 279.943 290.62 280.812C287.889 281.668 285.118 282.405 282.321 283.032C279.524 283.672 276.688 284.179 273.839 284.577C270.989 284.963 268.127 285.241 265.251 285.397C262.362 285.554 259.486 285.59 256.61 285.506C253.722 285.422 250.846 285.216 247.983 284.891C245.121 284.577 242.284 284.13 239.461 283.575C236.651 283.02 233.867 282.344 231.11 281.56C228.352 280.763 225.647 279.858 222.981 278.844C220.316 277.831 217.716 276.708 215.155 275.477C212.608 274.247 210.113 272.919 207.697 271.483C205.267 270.047 202.93 268.502 200.658 266.873C198.387 265.244 196.194 263.518 194.093 261.708C191.992 259.885 189.983 257.991 188.079 256.012C186.161 254.032 184.349 251.969 182.629 249.845C180.922 247.709 179.32 245.512 177.823 243.244C176.326 240.987 174.947 238.658 173.674 236.28C172.413 233.903 171.257 231.477 170.233 229.003C169.196 226.517 168.303 224.007 167.515 221.461C166.727 218.914 166.084 216.332 165.545 213.725C165.02 211.118 164.626 208.5 164.35 205.869C164.088 203.226 163.943 200.583 163.93 197.928C163.93 195.285 164.048 192.642 164.298 189.999C164.547 187.356 164.928 184.738 165.44 182.131C165.939 179.524 166.583 176.942 167.344 174.383C168.106 171.825 168.986 169.315 169.997 166.829C171.008 164.355 172.137 161.917 173.398 159.527C174.645 157.138 176.011 154.809 177.482 152.54C178.965 150.259 180.554 148.051 182.248 145.915C183.942 143.766 185.741 141.703 187.645 139.712C189.549 137.72 191.545 135.802 193.633 133.979C195.721 132.145 197.888 130.419 200.146 128.766C202.405 127.125 204.742 125.568 207.158 124.12C209.561 122.659 212.043 121.32 214.59 120.065C217.138 118.822 219.738 117.687 222.39 116.65C225.043 115.624 227.748 114.707 230.492 113.898C233.237 113.089 236.021 112.402 238.844 111.822C241.654 111.243 244.49 110.796 247.353 110.447C250.216 110.109 253.078 109.891 255.967 109.795C258.843 109.686 261.718 109.71 264.607 109.843C267.483 109.988 270.346 110.241 273.208 110.615C276.058 110.99 278.894 111.484 281.691 112.1C284.501 112.703 287.272 113.439 290.003 114.272C292.734 115.117 295.426 116.07 298.066 117.132C300.705 118.206 303.292 119.377 305.813 120.656C308.334 121.935 310.803 123.311 313.193 124.795V124.747Z" fill="#92278F" fill-opacity="0.7765"/>
<path fill-rule="evenodd" clip-rule="evenodd" d="M292.709 318.996C256.361 332.597 207.697 286.991 201.158 380C177.521 365.736 152.48 354.03 126.021 344.87C124.931 343.398 123.893 341.901 122.909 340.368C121.924 338.836 120.991 337.267 120.112 335.686C119.219 334.105 118.391 332.488 117.63 330.859C116.855 329.23 116.133 327.564 115.476 325.899C114.82 324.221 114.216 322.532 113.677 320.818C113.126 319.105 112.64 317.391 112.22 315.653C111.786 313.915 111.419 312.165 111.117 310.403C110.802 308.654 110.565 306.88 110.368 305.106C110.184 303.344 110.053 301.558 109.987 299.784C109.922 297.997 109.922 296.223 109.974 294.437C110.027 292.663 110.145 290.889 110.316 289.115C110.486 287.341 110.723 285.567 111.025 283.817C111.314 282.055 111.668 280.306 112.088 278.568C112.496 276.818 112.981 275.092 113.507 273.391C114.045 271.677 114.636 269.975 115.279 268.298C115.923 266.62 116.632 264.967 117.393 263.326C118.155 261.685 118.969 260.067 119.836 258.487C120.703 256.894 121.635 255.325 122.607 253.792C123.578 252.247 124.616 250.739 125.692 249.267C126.769 247.782 127.898 246.334 129.08 244.922C130.249 243.51 131.483 242.122 132.757 240.783C134.018 239.443 135.344 238.14 136.696 236.861C138.062 235.593 139.467 234.374 140.912 233.18C142.356 231.997 143.84 230.851 145.363 229.752C146.873 228.642 148.436 227.592 150.038 226.579C151.627 225.565 153.255 224.599 154.909 223.682C156.577 222.753 158.258 221.884 159.978 221.063C161.698 220.243 163.445 219.47 165.217 218.746C166.99 218.022 168.789 217.358 170.601 216.731C172.413 216.115 174.252 215.548 176.116 215.041C177.968 214.522 179.846 214.064 181.723 213.666C183.614 213.255 185.518 212.905 187.422 212.604C189.34 212.314 191.257 212.073 193.187 211.88C195.104 211.699 197.048 211.566 198.978 211.493C200.921 211.409 202.852 211.397 204.795 211.433C206.725 211.469 208.669 211.554 210.599 211.711C212.529 211.855 214.446 212.061 216.364 212.314C218.281 212.567 220.198 212.881 222.089 213.255C223.993 213.617 225.871 214.04 227.735 214.51C229.6 214.993 231.451 215.524 233.29 216.103C235.115 216.683 236.927 217.31 238.713 217.998C240.512 218.686 242.272 219.422 244.005 220.207C245.751 221.003 247.458 221.836 249.139 222.717C250.82 223.61 252.475 224.539 254.09 225.517C255.705 226.494 257.294 227.52 258.843 228.594C260.393 229.668 261.903 230.778 263.373 231.937C264.844 233.095 266.275 234.302 267.667 235.533C269.059 236.776 270.399 238.055 271.712 239.371C273.012 240.686 274.272 242.05 275.48 243.438C276.688 244.825 277.857 246.249 278.973 247.71C280.089 249.158 281.153 250.654 282.164 252.163C283.175 253.683 284.134 255.228 285.04 256.809C285.959 258.378 286.813 259.971 287.601 261.6C288.402 263.217 289.15 264.858 289.833 266.524C290.529 268.189 291.159 269.879 291.724 271.58C292.302 273.282 292.814 274.996 293.273 276.721C293.733 278.459 294.127 280.197 294.468 281.947C294.796 283.709 295.085 285.471 295.295 287.233C295.519 289.007 295.676 290.781 295.768 292.555C295.873 294.341 295.899 296.115 295.886 297.901C295.86 299.675 295.768 301.449 295.624 303.235C295.479 305.009 295.282 306.771 295.007 308.545C294.744 310.307 294.416 312.057 294.035 313.807C293.654 315.544 293.208 317.282 292.709 318.996Z" fill="#007FC6" fill-opacity="0.7765"/>
<path fill-rule="evenodd" clip-rule="evenodd" d="M239.343 319.478C220.145 320.214 204.65 330.376 201.157 380C177.652 365.82 152.755 354.162 126.466 345.014C126.545 341.997 126.9 339.004 127.504 336.048C128.121 333.079 128.988 330.183 130.104 327.347C131.233 324.511 132.612 321.783 134.214 319.152C135.829 316.534 137.667 314.035 139.716 311.682C141.778 309.329 144.023 307.157 146.465 305.141C148.921 303.126 151.521 301.304 154.292 299.687C157.062 298.057 159.951 296.657 162.971 295.463C165.992 294.28 169.09 293.327 172.281 292.603C175.472 291.878 178.703 291.408 181.972 291.166C185.242 290.937 188.525 290.937 191.794 291.203C195.064 291.456 198.294 291.951 201.472 292.687C204.65 293.435 207.749 294.401 210.756 295.608C213.776 296.814 216.652 298.238 219.409 299.88C222.167 301.521 224.754 303.355 227.183 305.383C229.625 307.41 231.858 309.607 233.893 311.972C235.928 314.337 237.754 316.835 239.343 319.478Z" fill="#01A6E6" fill-opacity="0.7765"/>
<path fill-rule="evenodd" clip-rule="evenodd" d="M327.165 234.242C324.88 234.845 322.779 235.774 320.836 237.029C313.364 242.387 318.472 248.18 319.128 252.356C319.444 254.347 317.487 257.533 311.027 261.407C318.498 266.463 313.469 270.349 310.462 274.078C296.49 283.334 315.938 303.392 292.879 318.947C269.597 327.757 241.3 312.213 222.181 324.149C221.879 322.544 221.629 320.926 221.432 319.309C221.248 317.692 221.104 316.075 221.025 314.446C220.933 312.817 220.907 311.188 220.933 309.558C220.959 307.929 221.038 306.312 221.169 304.683C221.301 303.054 221.498 301.437 221.734 299.832C221.984 298.214 222.286 296.609 222.627 295.016C222.982 293.423 223.389 291.83 223.848 290.262C224.308 288.693 224.82 287.136 225.385 285.591C225.949 284.046 226.566 282.514 227.236 281.005C227.906 279.497 228.628 278.012 229.39 276.54C230.164 275.08 230.979 273.632 231.845 272.208C232.712 270.796 233.618 269.396 234.576 268.02C235.535 266.656 236.546 265.317 237.597 264.001C238.647 262.698 239.737 261.407 240.879 260.164C242.009 258.909 243.191 257.702 244.412 256.519C245.633 255.337 246.894 254.19 248.18 253.08C249.48 251.97 250.807 250.895 252.185 249.858C253.551 248.82 254.956 247.83 256.387 246.877C257.819 245.923 259.289 245.006 260.786 244.137C262.283 243.268 263.807 242.436 265.369 241.651C266.919 240.867 268.494 240.131 270.096 239.431C271.698 238.743 273.327 238.091 274.981 237.488C276.623 236.884 278.29 236.341 279.971 235.835C281.665 235.328 283.359 234.869 285.079 234.459C286.786 234.048 288.52 233.686 290.253 233.373C291.999 233.059 293.746 232.805 295.505 232.588C297.265 232.383 299.025 232.214 300.797 232.106C302.557 231.997 304.33 231.937 306.102 231.924C307.875 231.912 309.648 231.949 311.42 232.045C313.18 232.13 314.953 232.274 316.712 232.468C318.472 232.661 320.218 232.902 321.965 233.192C323.711 233.481 325.445 233.819 327.165 234.217V234.242Z" fill="#2063B2" fill-opacity="0.7765"/>
<path fill-rule="evenodd" clip-rule="evenodd" d="M56.8584 235.232C59.0382 235.232 61.2048 235.039 63.3452 234.64C65.4856 234.254 67.5603 233.675 69.5826 232.915C71.6048 232.142 73.5219 231.201 75.334 230.091C77.1462 228.968 78.827 227.713 80.3764 226.289C81.9128 224.877 83.2916 223.333 84.4997 221.667C85.7209 219.99 86.7451 218.24 87.5855 216.381C88.4128 214.523 89.0431 212.616 89.4764 210.649C89.8966 208.682 90.1067 206.703 90.1067 204.687C90.1067 202.684 89.8966 200.705 89.4764 198.738C89.0431 196.771 88.4128 194.864 87.5855 193.005C86.7451 191.159 85.7209 189.397 84.5128 187.732C83.3047 186.054 81.9259 184.522 80.3764 183.098C78.8401 181.686 77.1593 180.418 75.3472 179.296C73.5219 178.186 71.6048 177.245 69.5957 176.484C67.5735 175.712 65.4987 175.133 63.3584 174.746C61.218 174.348 59.0513 174.155 56.8715 174.155C54.6917 174.155 52.5251 174.348 50.3847 174.746C48.2443 175.133 46.1696 175.712 44.1474 176.484C42.1383 177.245 40.2211 178.186 38.3959 179.308C36.5838 180.418 34.903 181.686 33.3666 183.11C31.8171 184.522 30.4383 186.066 29.2303 187.732C28.0222 189.397 26.998 191.159 26.1576 193.018C25.3303 194.864 24.7 196.783 24.2667 198.75C23.8465 200.717 23.6364 202.696 23.6364 204.712C23.6364 206.715 23.8596 208.694 24.2798 210.661C24.7131 212.616 25.3434 214.523 26.1838 216.381C27.0242 218.228 28.0484 219.99 29.2565 221.655C30.4646 223.308 31.8434 224.853 33.3929 226.265C34.9292 227.689 36.61 228.956 38.4221 230.067C40.2342 231.177 42.1383 232.118 44.1605 232.89C46.1696 233.663 48.2443 234.242 50.3847 234.628C52.5251 235.027 54.6786 235.232 56.8584 235.232Z" fill="#12BCBC" fill-opacity="0.7765"/>
<path fill-rule="evenodd" clip-rule="evenodd" d="M126.467 277.735C128.463 277.747 130.433 277.566 132.389 277.216C134.346 276.866 136.25 276.347 138.088 275.647C139.926 274.948 141.673 274.091 143.341 273.077C144.995 272.075 146.531 270.917 147.95 269.626C149.355 268.334 150.615 266.934 151.731 265.414C152.834 263.893 153.78 262.288 154.541 260.599C155.303 258.909 155.881 257.171 156.275 255.373C156.669 253.575 156.866 251.765 156.879 249.943C156.879 248.108 156.682 246.298 156.301 244.5C155.92 242.702 155.342 240.964 154.581 239.274C153.832 237.573 152.9 235.968 151.784 234.447C150.681 232.927 149.433 231.515 148.028 230.223C146.623 228.92 145.087 227.761 143.432 226.748C141.778 225.722 140.031 224.865 138.193 224.165C136.355 223.465 134.451 222.934 132.507 222.572C130.551 222.21 128.581 222.029 126.585 222.029C124.589 222.029 122.619 222.21 120.663 222.56C118.719 222.922 116.815 223.441 114.977 224.141C113.139 224.841 111.392 225.698 109.725 226.711C108.07 227.737 106.547 228.884 105.129 230.175C103.724 231.478 102.463 232.878 101.36 234.399C100.257 235.919 99.3115 237.524 98.5499 239.214C97.7883 240.916 97.2105 242.653 96.8297 244.452C96.4357 246.238 96.2388 248.06 96.2388 249.882C96.2519 251.704 96.4489 253.515 96.8297 255.301C97.2236 257.099 97.8014 258.837 98.563 260.514C99.3115 262.204 100.244 263.809 101.347 265.317C102.45 266.838 103.71 268.25 105.102 269.541C106.507 270.832 108.031 271.979 109.685 273.005C111.327 274.018 113.073 274.875 114.911 275.575C116.737 276.287 118.628 276.818 120.571 277.18C122.514 277.542 124.484 277.735 126.467 277.735Z" fill="#00B9F1" fill-opacity="0.7765"/>
<path fill-rule="evenodd" clip-rule="evenodd" d="M52.0786 160.915C53.615 160.915 55.1251 160.783 56.622 160.505C58.119 160.227 59.5766 159.829 60.9947 159.286C62.3998 158.755 63.7523 158.091 65.0129 157.307C66.2866 156.535 67.4684 155.641 68.5452 154.652C69.6351 153.65 70.5937 152.576 71.4472 151.406C72.3007 150.235 73.0098 149.004 73.6007 147.701C74.1785 146.409 74.625 145.07 74.927 143.694C75.2159 142.318 75.3735 140.918 75.3735 139.519C75.3735 138.107 75.2159 136.719 74.927 135.343C74.625 133.955 74.1785 132.628 73.6007 131.324C73.0098 130.021 72.2876 128.79 71.4472 127.619C70.5937 126.461 69.622 125.375 68.5452 124.385C67.4553 123.384 66.2866 122.503 65.0129 121.718C63.7392 120.934 62.3998 120.282 60.9816 119.739C59.5766 119.208 58.119 118.798 56.6089 118.52C55.112 118.255 53.6019 118.122 52.0655 118.122C50.5423 118.122 49.0191 118.255 47.5221 118.532C46.0251 118.81 44.5676 119.208 43.1625 119.751C41.7444 120.282 40.405 120.946 39.1312 121.73C37.8575 122.515 36.6888 123.396 35.5989 124.397C34.5222 125.387 33.5505 126.473 32.7101 127.631C31.8565 128.802 31.1474 130.045 30.5565 131.336C29.9656 132.64 29.5323 133.979 29.2303 135.355C28.9414 136.731 28.7838 138.119 28.7838 139.531C28.7969 140.931 28.9414 142.318 29.2434 143.694C29.5454 145.082 29.9919 146.409 30.5697 147.713C31.1606 149.004 31.8828 150.235 32.7232 151.406C33.5767 152.576 34.5484 153.65 35.6252 154.64C36.702 155.641 37.8838 156.522 39.1575 157.307C40.4181 158.079 41.7575 158.743 43.1757 159.274C44.5807 159.817 46.0383 160.227 47.5352 160.505C49.0322 160.77 50.5554 160.915 52.0786 160.915Z" fill="#8DC63F" fill-opacity="0.7765"/>
<path d="M40.4574 86.3474C40.4574 87.5662 40.3392 88.773 40.0766 89.9678C39.814 91.1625 39.4332 92.321 38.9211 93.4434C38.4221 94.5657 37.8049 95.6277 37.0695 96.6414C36.3342 97.6551 35.4938 98.5964 34.5615 99.4533C33.616 100.31 32.6049 101.082 31.5019 101.758C30.3989 102.434 29.2302 103.001 28.009 103.472C26.7878 103.931 25.5272 104.28 24.2272 104.522C22.9272 104.763 21.6141 104.884 20.301 104.884C18.9747 104.884 17.6616 104.763 16.3616 104.522C15.0616 104.28 13.801 103.931 12.5798 103.472C11.3586 103.001 10.1899 102.434 9.08691 101.758C7.98388 101.082 6.97278 100.31 6.04046 99.4533C5.09501 98.5964 4.26775 97.6551 3.5324 96.6414C2.79705 95.6277 2.16675 94.5657 1.66776 93.4434C1.15565 92.321 0.774842 91.1625 0.512214 89.9678C0.262723 88.773 0.131409 87.5662 0.131409 86.3474C0.131409 85.1285 0.262723 83.9217 0.512214 82.739C0.774842 81.5443 1.15565 80.3857 1.66776 79.2634C2.16675 78.129 2.79705 77.067 3.5324 76.0533C4.26775 75.0396 5.09501 74.1103 6.04046 73.2414C6.97278 72.3846 7.98388 71.6243 9.08691 70.9485C10.1899 70.2727 11.3586 69.6934 12.5798 69.2348C13.801 68.7642 15.0616 68.4142 16.3616 68.1728C17.6616 67.9436 18.9747 67.8229 20.301 67.8229C21.6141 67.8229 22.9272 67.9436 24.2272 68.1728C25.5272 68.4142 26.7878 68.7642 28.009 69.2348C29.2302 69.6934 30.3989 70.2727 31.5019 70.9485C32.6049 71.6243 33.616 72.3846 34.5615 73.2414C35.4938 74.1103 36.3342 75.0396 37.0695 76.0533C37.8049 77.067 38.4221 78.129 38.9211 79.2634C39.4332 80.3857 39.814 81.5443 40.0766 82.739C40.3392 83.9217 40.4574 85.1285 40.4574 86.3474Z" fill="#FFD900" fill-opacity="0.7765"/>
<path fill-rule="evenodd" clip-rule="evenodd" d="M62.8985 52.3995C64.146 52.3995 65.3672 52.2909 66.5753 52.0737C67.7965 51.8444 68.9652 51.5185 70.1076 51.0841C71.25 50.6496 72.3399 50.1187 73.3641 49.4911C74.4015 48.8636 75.3469 48.1395 76.2267 47.343C77.0934 46.5344 77.8813 45.6655 78.5641 44.7242C79.26 43.7708 79.8378 42.7812 80.3105 41.7313C80.7833 40.6814 81.1378 39.5953 81.3873 38.485C81.6237 37.3747 81.7418 36.2403 81.7418 35.1059C81.7418 33.9715 81.6237 32.8492 81.3873 31.7269C81.1509 30.6166 80.7833 29.5305 80.3105 28.4806C79.8378 27.4306 79.26 26.441 78.5772 25.4997C77.8944 24.5464 77.1065 23.6775 76.2399 22.8689C75.3601 22.0724 74.4146 21.3483 73.3904 20.7208C72.353 20.0932 71.2763 19.5502 70.1338 19.1157C68.9914 18.6813 67.8096 18.3554 66.6015 18.1382C65.3803 17.9089 64.1591 17.8003 62.9248 17.8003C61.6905 17.8003 60.4561 17.9089 59.248 18.1261C58.04 18.3554 56.8582 18.6813 55.7157 19.1157C54.5733 19.5502 53.4834 20.0812 52.4592 20.7087C51.435 21.3483 50.4764 22.0603 49.6097 22.8689C48.7299 23.6654 47.9552 24.5464 47.2592 25.4877C46.5764 26.429 45.9986 27.4306 45.5259 28.4806C45.0532 29.5305 44.6986 30.6045 44.4491 31.7269C44.2128 32.8371 44.0946 33.9595 44.0946 35.0939C44.0946 36.2283 44.2128 37.3627 44.4623 38.4729C44.6986 39.5832 45.0532 40.6693 45.5259 41.7072C45.9986 42.7571 46.5764 43.7588 47.2724 44.7001C47.9552 45.6414 48.7299 46.5224 49.6097 47.3188C50.4764 48.1274 51.435 48.8394 52.4592 49.467C53.4834 50.1066 54.5733 50.6376 55.7026 51.072C56.845 51.5065 58.0268 51.8323 59.2349 52.0616C60.443 52.2788 61.6642 52.3995 62.8985 52.3995Z" fill="#009444" fill-opacity="0.7765"/>
<path fill-rule="evenodd" clip-rule="evenodd" d="M69.2936 95.518C70.9481 95.518 72.537 95.2284 74.0602 94.6491C75.5834 94.0578 76.9228 93.2372 78.0915 92.1631C79.2602 91.1011 80.1531 89.8581 80.7834 88.4582C81.4137 87.0583 81.7289 85.5981 81.7289 84.0896C81.7289 82.569 81.4137 81.1088 80.7834 79.7089C80.1531 78.309 79.2602 77.078 78.0915 76.004C76.9228 74.9299 75.5834 74.1093 74.0602 73.53C72.537 72.9508 70.9481 72.6611 69.2936 72.6611C67.6522 72.6611 66.0633 72.9508 64.5401 73.53C63.0168 74.1093 61.6643 74.9299 60.4956 76.004C59.3401 77.078 58.434 78.309 57.8037 79.7089C57.1734 81.1088 56.8583 82.569 56.8583 84.0896C56.8583 85.5981 57.1866 87.0583 57.8169 88.4582C58.4472 89.8581 59.3401 91.0891 60.5088 92.1631C61.6774 93.2251 63.0168 94.0578 64.5401 94.6371C66.0633 95.2163 67.6522 95.506 69.2936 95.518Z" fill="#56BA48" fill-opacity="0.7765"/>
<path fill-rule="evenodd" clip-rule="evenodd" d="M95.2405 22.8569C96.8819 22.8569 98.4708 22.5673 99.994 21.988C101.517 21.4088 102.857 20.5761 104.025 19.502C105.194 18.44 106.1 17.197 106.73 15.7971C107.361 14.3972 107.676 12.937 107.676 11.4285C107.676 9.90789 107.361 8.44765 106.73 7.04776C106.1 5.64786 105.194 4.41692 104.025 3.34286C102.857 2.2688 101.517 1.44817 99.994 0.868902C98.4708 0.289634 96.8819 0 95.2405 0C93.586 0 91.9971 0.289634 90.4739 0.868902C88.9507 1.44817 87.6113 2.2688 86.4426 3.34286C85.2739 4.41692 84.381 5.64786 83.7507 7.04776C83.1073 8.44765 82.7921 9.90789 82.7921 11.4285C82.8052 12.937 83.1204 14.3972 83.7507 15.7971C84.381 17.197 85.2871 18.428 86.4426 19.502C87.6113 20.564 88.9638 21.3967 90.4739 21.976C91.9971 22.5552 93.586 22.8449 95.2405 22.8569Z" fill="#FBAD17" fill-opacity="0.7765"/>
<path fill-rule="evenodd" clip-rule="evenodd" d="M18.8428 48.3194C20.0903 48.3194 21.2852 48.0901 22.4408 47.6557C23.5832 47.2092 24.6074 46.5816 25.4741 45.7731C26.3539 44.9524 27.0367 44.0232 27.5094 42.9612C27.9821 41.8992 28.2185 40.7889 28.2185 39.6425C28.2054 38.5081 27.969 37.3978 27.4832 36.3479C27.0104 35.2859 26.3276 34.3567 25.4347 33.5481C24.5549 32.7395 23.5307 32.112 22.3882 31.6776C21.2327 31.2431 20.0246 31.0259 18.7771 31.0259C17.5428 31.0259 16.3347 31.2431 15.1792 31.6896C14.0368 32.1241 13.0125 32.7516 12.1327 33.5602C11.2529 34.3687 10.5701 35.31 10.0974 36.372C9.62467 37.422 9.38831 38.5322 9.38831 39.6787C9.38831 40.8252 9.62467 41.9233 10.1105 42.9853C10.5964 44.0473 11.2792 44.9886 12.159 45.7972C13.0519 46.6058 14.0762 47.2333 15.2317 47.6677C16.3873 48.1022 17.5953 48.3315 18.8428 48.3194Z" fill="#F15C22" fill-opacity="0.7765"/>
<path d="M242.626 136.562C242.626 138.939 242.495 141.292 242.245 143.646C241.996 146.011 241.615 148.34 241.116 150.669C240.604 152.986 239.987 155.279 239.238 157.548C238.49 159.817 237.623 162.037 236.638 164.222C235.653 166.418 234.55 168.554 233.329 170.642C232.121 172.73 230.795 174.757 229.363 176.724C227.932 178.691 226.396 180.586 224.767 182.42C223.126 184.255 221.406 186.005 219.581 187.67C217.755 189.348 215.851 190.941 213.869 192.437C211.873 193.945 209.798 195.345 207.657 196.661C205.517 197.976 203.311 199.195 201.039 200.305C198.768 201.428 196.443 202.441 194.067 203.346C191.677 204.252 189.261 205.048 186.792 205.736C184.323 206.424 181.828 206.991 179.307 207.45C176.773 207.92 174.225 208.27 171.665 208.5C169.104 208.729 166.53 208.85 163.957 208.85C161.383 208.85 158.809 208.729 156.249 208.5C153.675 208.27 151.141 207.92 148.606 207.45C146.085 206.991 143.59 206.424 141.121 205.736C138.653 205.048 136.237 204.252 133.847 203.346C131.47 202.441 129.146 201.428 126.874 200.305C124.602 199.195 122.396 197.976 120.256 196.661C118.102 195.345 116.041 193.945 114.045 192.437C112.062 190.941 110.145 189.348 108.333 187.67C106.508 186.005 104.774 184.255 103.146 182.42C101.505 180.586 99.9813 178.691 98.55 176.724C97.1187 174.757 95.7925 172.73 94.5713 170.642C93.3632 168.554 92.2602 166.418 91.2753 164.222C90.2905 162.037 89.4238 159.817 88.6753 157.548C87.9269 155.279 87.2966 152.986 86.7976 150.669C86.2986 148.34 85.9178 146.011 85.6683 143.646C85.4188 141.292 85.2875 138.939 85.2875 136.562C85.2875 134.196 85.4188 131.843 85.6683 129.478C85.9178 127.125 86.2986 124.783 86.7976 122.466C87.2966 120.149 87.9269 117.844 88.6753 115.587C89.4238 113.319 90.2905 111.098 91.2753 108.902C92.2602 106.717 93.3632 104.581 94.5713 102.494C95.7925 100.406 97.1187 98.3783 98.55 96.4112C99.9813 94.4441 101.505 92.5374 103.146 90.7151C104.774 88.8808 106.508 87.1309 108.333 85.4534C110.145 83.788 112.062 82.195 114.045 80.6986C116.041 79.1901 118.102 77.7781 120.256 76.4748C122.396 75.1593 124.602 73.9405 126.874 72.8181C129.146 71.7079 131.47 70.6942 133.847 69.7891C136.237 68.8839 138.653 68.0875 141.121 67.3996C143.59 66.7117 146.085 66.1445 148.606 65.6738C151.141 65.2153 153.675 64.8653 156.249 64.636C158.809 64.4067 161.383 64.286 163.957 64.286C166.53 64.286 169.104 64.4067 171.665 64.636C174.225 64.8653 176.773 65.2153 179.307 65.6738C181.828 66.1445 184.323 66.7117 186.792 67.3996C189.261 68.0875 191.677 68.8839 194.067 69.7891C196.443 70.6942 198.768 71.7079 201.039 72.8181C203.311 73.9405 205.517 75.1593 207.657 76.4748C209.798 77.7781 211.873 79.1901 213.869 80.6986C215.851 82.195 217.755 83.788 219.581 85.4534C221.406 87.1309 223.126 88.8808 224.767 90.7151C226.396 92.5374 227.932 94.4441 229.363 96.4112C230.795 98.3783 232.121 100.406 233.329 102.494C234.55 104.581 235.653 106.717 236.638 108.902C237.623 111.098 238.49 113.319 239.238 115.587C239.987 117.844 240.604 120.149 241.116 122.466C241.615 124.783 241.996 127.125 242.245 129.478C242.495 131.843 242.626 134.196 242.626 136.562Z" fill="#FBAD17" fill-opacity="0.7765"/>
<path fill-rule="evenodd" clip-rule="evenodd" d="M207.408 27.1659C245.107 34.3102 276.701 51.6641 295.321 76.6209C295.006 78.7328 294.546 80.8206 293.942 82.8842C293.338 84.9478 292.603 86.9632 291.723 88.9424C290.843 90.9215 289.845 92.8404 288.703 94.7109C287.574 96.5694 286.313 98.3675 284.948 100.093C283.569 101.807 282.085 103.448 280.483 104.993C278.881 106.55 277.187 108.01 275.401 109.362C273.602 110.725 271.724 111.968 269.755 113.115C267.798 114.261 265.763 115.287 263.662 116.204C261.561 117.121 259.407 117.906 257.201 118.569C254.995 119.245 252.75 119.776 250.465 120.199C248.18 120.609 245.882 120.887 243.571 121.031C241.247 121.188 238.923 121.2 236.598 121.092C234.287 120.971 231.976 120.73 229.691 120.343C227.406 119.969 225.148 119.463 222.929 118.835C220.71 118.195 218.543 117.435 216.429 116.554C214.301 115.673 212.253 114.672 210.27 113.561C208.287 112.439 206.396 111.22 204.571 109.893C202.759 108.553 201.039 107.129 199.411 105.596C197.782 104.076 196.272 102.459 194.867 100.757C193.462 99.0554 192.175 97.2814 191.007 95.435C189.838 93.5886 188.801 91.6818 187.895 89.7147C186.975 87.7476 186.201 85.7443 185.57 83.6807C184.927 81.6291 184.428 79.5534 184.073 77.4415C183.719 75.3296 183.509 73.2056 183.43 71.0695C183.364 68.9335 183.43 66.8095 183.653 64.6855C183.863 62.5495 184.231 60.4496 184.73 58.3619C185.229 56.2741 185.872 54.2225 186.647 52.2192C187.422 50.2038 188.341 48.2368 189.378 46.33C190.416 44.4232 191.584 42.5768 192.884 40.8028C194.171 39.0288 195.576 37.3272 197.1 35.7222C198.623 34.105 200.238 32.5724 201.971 31.1484C203.691 29.7123 205.504 28.3848 207.408 27.1659Z" fill="#EC008B" fill-opacity="0.7765"/>
<path fill-rule="evenodd" clip-rule="evenodd" d="M137.471 104.895C140.57 104.895 143.629 104.618 146.663 104.063C149.696 103.508 152.651 102.687 155.5 101.601C158.363 100.515 161.081 99.1752 163.655 97.5943C166.228 96.0134 168.605 94.2273 170.798 92.2119C172.978 90.2086 174.934 88.0122 176.654 85.659C178.375 83.2936 179.832 80.7955 181.014 78.1647C182.196 75.5459 183.089 72.8427 183.693 70.0549C184.297 67.2551 184.599 64.4433 184.599 61.6073C184.599 58.7592 184.297 55.9474 183.693 53.1596C183.089 50.3719 182.196 47.6687 181.014 45.0378C179.832 42.407 178.375 39.9209 176.654 37.5556C174.934 35.1903 172.991 33.0059 170.798 30.9906C168.618 28.9873 166.228 27.1891 163.655 25.6082C161.094 24.0273 158.376 22.6998 155.513 21.6137C152.651 20.5275 149.709 19.7069 146.676 19.1518C143.643 18.5967 140.583 18.3191 137.484 18.3191C134.385 18.3191 131.325 18.5967 128.292 19.1518C125.259 19.7069 122.317 20.5275 119.455 21.6137C116.592 22.6998 113.887 24.0273 111.313 25.6082C108.74 27.1891 106.363 28.9873 104.17 30.9906C101.977 33.0059 100.034 35.1903 98.3135 37.5556C96.5933 39.9209 95.1357 42.407 93.9539 45.0378C92.7721 47.6687 91.8792 50.3719 91.2751 53.1596C90.6711 55.9474 90.3691 58.7592 90.3691 61.6073C90.3691 64.4433 90.6842 67.2551 91.2883 70.0429C91.8923 72.8306 92.7984 75.5338 93.9802 78.1526C95.162 80.7714 96.6195 83.2695 98.3266 85.6348C100.047 87.9881 102.003 90.1724 104.183 92.1878C106.376 94.1911 108.753 95.9892 111.327 97.5701C113.887 99.1511 116.605 100.479 119.455 101.577C122.317 102.663 125.259 103.484 128.292 104.039C131.312 104.606 134.372 104.883 137.471 104.895Z" fill="#56BA48" fill-opacity="0.7765"/>
<path d="M166.885 71.7326C168.014 72.7704 169.406 73.2893 170.811 73.2893H204.414C205.806 73.2893 207.211 72.7704 208.327 71.7326L217.571 63.2246C220.368 64.5159 223.454 65.2882 226.816 65.2882C237.728 65.2882 246.408 57.2871 246.408 47.2223C246.408 37.1575 237.728 29.1564 226.816 29.1564C215.891 29.1564 207.211 37.1575 207.211 47.2223C207.211 50.3238 208.051 53.1598 209.443 55.7424L202.168 62.9591H173.043L154.003 45.4121V11.356H170.246C170.811 11.356 171.362 11.6094 171.927 11.356C221.773 9.54577 273.011 30.4477 297.934 73.2893H279.17C276.649 65.8071 269.374 60.3886 260.405 60.3886C249.493 60.3886 240.814 68.3776 240.814 78.4424C240.814 86.7091 246.683 93.4189 254.811 95.736V142.958H212.805C209.732 142.958 207.211 145.287 207.211 148.123V176.508H196.01V145.541C196.01 143.996 195.169 142.705 194.053 141.667L176.405 127.741V93.9258H199.371L206.935 100.901C205.53 103.484 204.69 106.32 204.69 109.409C204.69 119.474 213.369 127.475 224.295 127.475C235.207 127.475 243.886 119.474 243.886 109.409C243.886 99.3443 235.207 91.3553 224.295 91.3553C220.933 91.3553 217.847 92.1276 215.05 93.4189L205.806 84.8988C204.414 84.1265 203.009 83.6076 201.604 83.6076H170.811C167.725 83.6076 165.204 85.9246 165.204 88.7727V130.058C165.204 131.602 166.044 132.894 167.174 133.931L184.809 147.858V176.508H162.407C161.002 176.508 159.61 177.027 158.494 178.052L113.69 219.349C112.561 220.375 112.009 221.666 112.009 222.958V265.015C103.881 267.344 98.0114 274.054 98.0114 282.308C98.0114 292.373 106.691 300.374 117.603 300.374C128.528 300.374 137.208 292.373 137.208 282.308C137.208 274.054 131.325 267.344 123.21 265.015V225.021L164.652 186.826H266.012C268.245 186.826 270.214 185.8 271.055 183.99L287.85 153.023C288.125 152.251 288.414 151.478 288.414 150.706V132.64H313.049V153.795L305.774 168.506C305.209 169.798 305.209 171.089 305.485 172.38L330.132 233.022C330.132 233.276 330.132 233.541 330.132 233.795C329.857 234.048 329.857 234.048 329.568 234.048H305.485C303.817 234.048 302.136 234.833 301.007 236.112C299.891 237.403 299.615 239.213 300.167 240.758L306.89 258.824L294.008 262.951C292.327 263.47 290.936 264.761 290.371 266.306C289.806 267.863 290.095 269.661 291.211 270.952L299.615 281.536L292.327 286.701C290.936 287.727 290.095 289.272 290.095 290.828V303.983C290.095 309.92 286.734 315.604 281.126 318.44C278.605 319.985 275.533 320.757 272.447 320.757C249.204 321.023 159.61 293.918 159.61 248.759V237.922C159.61 235.086 157.089 232.769 154.003 232.769C150.93 232.769 148.409 235.086 148.409 237.922V248.759C148.409 303.729 248.929 331.341 272.736 331.341C277.765 331.341 282.807 330.05 287.009 327.733C295.965 322.821 301.296 314.047 301.296 304.248V293.411L310.527 286.701C312.773 284.891 313.337 281.789 311.657 279.726L304.645 270.699L315.845 267.079C318.656 266.053 320.336 263.217 319.207 260.634L313.337 244.378H329.568C333.494 244.378 337.131 242.568 339.377 239.732C341.609 236.631 342.174 232.769 340.769 229.414L316.975 170.836L323.685 157.15C323.974 156.378 324.249 155.859 324.249 155.087V126.703C322.569 87.7348 305.209 54.97 274.416 31.739C246.408 10.5836 210.283 -7.74264e-05 171.927 1.02571C171.651 1.02571 171.087 1.02571 170.811 1.02571H148.409C145.323 1.02571 142.802 3.35485 142.802 6.19085V47.4757C142.802 48.767 143.367 50.0583 144.483 51.0962L166.885 71.7326ZM226.816 39.7401C231.569 39.7401 235.207 43.095 235.207 47.4757C235.207 51.8685 231.569 55.2234 226.816 55.2234C222.049 55.2234 218.412 51.8685 218.412 47.4757C218.412 43.095 222.049 39.7401 226.816 39.7401ZM224.006 101.673C228.772 101.673 232.41 105.028 232.41 109.409C232.41 113.802 228.772 117.157 224.006 117.157C219.252 117.157 215.615 113.802 215.615 109.409C215.615 105.028 219.252 101.673 224.006 101.673ZM126.007 282.308C126.007 286.701 122.37 290.056 117.603 290.056C112.85 290.056 109.212 286.701 109.212 282.308C109.212 277.928 112.85 274.573 117.603 274.573C122.37 274.573 126.007 277.928 126.007 282.308ZM252.015 78.4424C252.015 74.0617 255.652 70.7068 260.405 70.7068C265.172 70.7068 268.809 74.0617 268.809 78.4424C268.809 82.8352 265.172 86.1901 260.405 86.1901C255.652 86.1901 252.015 82.8352 252.015 78.4424ZM312.773 122.322H282.807C279.735 122.322 277.213 124.639 277.213 127.475V149.415L262.651 176.508H218.412V153.277H260.405C263.491 153.277 266.012 150.959 266.012 148.123V95.736C272.447 93.9258 277.213 89.2795 279.17 83.6076H303.253C308.295 95.217 311.657 108.118 312.773 122.322Z" fill="white"/>
<path d="M16.8138 36.3883V81.0281C16.8138 82.5849 17.6542 84.1296 18.7704 85.1554L49.5762 107.868C49.852 108.121 50.1278 108.121 50.4166 108.386V163.61C50.4166 164.901 50.9682 165.927 51.8086 166.965L67.2115 183.474V226.316C59.0964 228.633 53.2136 235.343 53.2136 243.609C53.2136 253.674 61.8933 261.663 72.8185 261.663C83.7306 261.663 92.4103 253.674 92.4103 243.609C92.4103 235.343 86.5275 228.633 78.4124 226.316V181.676C78.4124 180.385 77.8478 179.347 77.0074 178.321L61.6176 161.8V48.5167L89.6134 63.2277V73.7993C81.4983 76.1285 75.6155 82.8383 75.6155 91.0929C75.6155 101.158 84.2952 109.159 95.2073 109.159C106.132 109.159 114.812 101.158 114.812 91.0929C114.812 82.8383 108.929 76.1285 100.814 73.7993V60.3917C100.814 58.5815 99.6982 56.7713 98.0174 55.9989L58.8075 35.3504C57.1267 34.3246 54.8944 34.3246 53.2136 35.3504C51.5328 36.3883 50.4166 37.933 50.4166 39.7432V95.2202L28.0148 78.4455V36.3883C36.1299 34.0591 42.0126 27.3614 42.0126 19.0947C42.0126 9.02994 33.3329 1.02881 22.4077 1.02881C11.4957 1.02881 2.81592 9.02994 2.81592 19.0947C2.81592 27.3614 8.68558 34.0591 16.8138 36.3883ZM81.2094 243.609C81.2094 247.99 77.572 251.345 72.8185 251.345C68.0519 251.345 64.4145 247.99 64.4145 243.609C64.4145 239.216 68.0519 235.862 72.8185 235.862C77.572 235.862 81.2094 239.216 81.2094 243.609ZM103.611 91.3584C103.611 95.7391 99.9739 99.094 95.2073 99.094C90.4538 99.094 86.8164 95.7391 86.8164 91.3584C86.8164 86.9656 90.4538 83.6107 95.2073 83.6107C99.9739 83.6107 103.611 86.9656 103.611 91.3584ZM22.4077 11.3591C27.1744 11.3591 30.8117 14.714 30.8117 19.0947C30.8117 23.4875 27.1744 26.8424 22.4077 26.8424C17.6542 26.8424 14.0169 23.4875 14.0169 19.0947C14.0169 14.714 17.6542 11.3591 22.4077 11.3591Z" fill="white"/>
<path d="M142.802 83.0888V158.707L100.809 197.41V160.252C108.924 157.923 114.807 151.213 114.807 142.959C114.807 132.894 106.127 124.893 95.2016 124.893C84.2896 124.893 75.6098 132.894 75.6098 142.959C75.6098 151.213 81.4926 157.923 89.6077 160.252V210.057C89.6077 212.121 91.0127 213.931 92.9693 214.703C93.8097 215.21 94.3612 215.21 95.2016 215.21C96.6066 215.21 98.0117 214.703 99.1278 213.665L152.322 164.633C153.452 163.607 154.003 162.316 154.003 161.024V81.0252C154.003 79.7339 153.452 78.4426 152.322 77.4168L131.601 58.313V19.0918C131.601 16.2558 129.093 13.9387 126.007 13.9387C122.922 13.9387 120.414 16.2558 120.414 19.0918V60.3888C120.414 61.668 120.965 62.9593 122.081 63.9971L142.802 83.0888ZM95.2016 150.706C90.4481 150.706 86.8107 147.351 86.8107 142.959C86.8107 138.578 90.4481 135.223 95.2016 135.223C99.9682 135.223 103.606 138.578 103.606 142.959C103.606 147.351 99.9682 150.706 95.2016 150.706Z" fill="white"/>
<path d="M0 207.474C0 217.539 8.67975 225.54 19.6049 225.54C30.5301 225.54 39.2099 217.539 39.2099 207.474C39.2099 199.22 33.3271 192.51 25.212 190.181V155.087C33.3271 152.77 39.2099 146.06 39.2099 137.793C39.2099 127.741 30.5301 119.74 19.6049 119.74C8.67975 119.74 0 127.741 0 137.793C0 146.06 5.88279 152.77 14.011 155.087V190.181C5.88279 192.51 0 199.22 0 207.474ZM11.2009 137.793C11.2009 133.413 14.8514 130.058 19.6049 130.058C24.3716 130.058 28.0089 133.413 28.0089 137.793C28.0089 142.186 24.3716 145.541 19.6049 145.541C14.8514 145.541 11.2009 142.186 11.2009 137.793ZM19.6049 199.727C24.3716 199.727 28.0089 203.082 28.0089 207.474C28.0089 211.855 24.3716 215.21 19.6049 215.21C14.8514 215.21 11.2009 211.855 11.2009 207.474C11.2009 203.082 14.8514 199.727 19.6049 199.727Z" fill="white"/>
</svg>
